<?xml version="1.0" encoding="utf-8"?>
<!-- Generator: Adobe Illustrator 15.0.0, SVG Export Plug-In . SVG Version: 6.00 Build 0)  -->
<!DOCTYPE svg PUBLIC "-//W3C//DTD SVG 1.1//EN" "http://www.w3.org/Graphics/SVG/1.1/DTD/svg11.dtd">
<svg version="1.1"
	 id="svg3273" xmlns:dc="http://purl.org/dc/elements/1.1/" xmlns:cc="http://creativecommons.org/ns#" xmlns:rdf="http://www.w3.org/1999/02/22-rdf-syntax-ns#" xmlns:svg="http://www.w3.org/2000/svg" xmlns:sodipodi="http://sodipodi.sourceforge.net/DTD/sodipodi-0.dtd" xmlns:inkscape="http://www.inkscape.org/namespaces/inkscape" inkscape:version="0.48.2 r9819" sodipodi:docname="toggle-on-intl.svg"
	 xmlns="http://www.w3.org/2000/svg" xmlns:xlink="http://www.w3.org/1999/xlink" x="0px" y="0px" width="64px" height="22px"
	 viewBox="0 0 64 22" enable-background="new 0 0 64 22" xml:space="preserve">
<filter  y="-0.078000002" x="-0.25999999" height="1.156" width="1.52" id="filter4199-9" inkscape:collect="always" color-interpolation-filters="sRGB">
	<feGaussianBlur  id="feGaussianBlur4201-6" stdDeviation="0.325" inkscape:collect="always"></feGaussianBlur>
</filter>
<sodipodi:namedview  id="namedview68" inkscape:cy="33.04238" inkscape:cx="-72.107368" inkscape:zoom="2.9928143" guidetolerance="10" showborder="false" gridtolerance="10" objecttolerance="10" showguides="true" borderopacity="1" bordercolor="#bc1010" showgrid="true" pagecolor="#1e1e1e" inkscape:current-layer="layer1" inkscape:window-y="25" inkscape:window-x="0" inkscape:showpageshadow="false" inkscape:guide-bbox="true" inkscape:window-height="1140" inkscape:window-width="1920" inkscape:pageshadow="2" inkscape:pageopacity="1" inkscape:window-maximized="1">
	<inkscape:grid  type="xygrid" enabled="true" visible="true" id="grid3045" empspacing="8" snapvisiblegridlinesonly="true">
		</inkscape:grid>
	<sodipodi:guide  id="guide4468" position="0,11" orientation="1,0"></sodipodi:guide>
	<sodipodi:guide  id="guide4470" position="31,22" orientation="0,1"></sodipodi:guide>
	<sodipodi:guide  id="guide4472" position="31,0" orientation="0,1"></sodipodi:guide>
	<sodipodi:guide  id="guide4474" position="64,13" orientation="1,0"></sodipodi:guide>
</sodipodi:namedview>
<g id="layer1" inkscape:label="Trough" inkscape:groupmode="layer">
	
		<path id="path4619" inkscape:radius="-1.0053965" sodipodi:type="inkscape:offset" inkscape:original="M 5 2 C 3.338 2 2 3.338 2 5 L 2 17 C 2 18.662 3.338 20 5 20 L 59 20 C 60.662 20 62 18.662 62 17 L 62 5 C 62 3.338 60.662 2 59 2 L 5 2 z " fill="#1086F1" d="
		M5,3C3.877,3,3,3.877,3,5v12c0,1.123,0.877,2,2,2h54c1.123,0,2-0.877,2-2V5c0-1.123-0.877-2-2-2H5z"/>
	<path id="rect4052" sodipodi:nodetypes="sssssssssccccc" inkscape:connector-curvature="0" fill="#1182F1" d="M5,2
		C3.338,2,2,3.338,2,5v12c0,1.662,1.338,3,3,3h54c1.662,0,3-1.338,3-3V5c0-1.662-1.338-3-3-3H5z M5,5h54v12H5V5z"/>
	<path id="rect4042" sodipodi:nodetypes="ssssssssssssssssss" inkscape:connector-curvature="0" fill="#1254B0" d="M5,2
		C3.338,2,2,3.338,2,5v12c0,1.662,1.338,3,3,3h54c1.662,0,3-1.338,3-3V5c0-1.662-1.338-3-3-3H5z M5,4h54c0.582,0,1,0.417,1,1v12
		c0,0.582-0.418,1-1,1H5c-0.583,0-1-0.418-1-1V5C4,4.417,4.417,4,5,4z"/>
	<path id="rect4038" sodipodi:nodetypes="ssssssssssssssssss" inkscape:connector-curvature="0" fill="#787878" d="M5,2
		C3.338,2,2,3.338,2,5v12c0,1.662,1.338,3,3,3h54c1.662,0,3-1.338,3-3V5c0-1.662-1.338-3-3-3H5z M5,3h54c1.117,0,2,0.883,2,2v12
		c0,1.117-0.883,2-2,2H5c-1.117,0-2-0.883-2-2V5C3,3.883,3.883,3,5,3z"/>
	<g id="g4579">
		<g id="rect4197" opacity="0.5" filter="url(#filter4199-9)" enable-background="new    ">
			<rect x="15" y="6.5" width="3" height="10"/>
		</g>
		<rect id="rect4195" x="15" y="6" fill="#FFFFFF" width="3" height="10"/>
	</g>
</g>
<g id="layer2" inkscape:label="Button" inkscape:groupmode="layer">
	
		<path id="path4541" inkscape:radius="0.94267464" sodipodi:type="inkscape:offset" inkscape:original="M 5 0 C 2.2642981 0 0 2.2642981 0 5 L 0 17 C 0 19.735702 2.2642982 22 5 22 L 29 22 C 31.735702 22 34 19.735702 34 17 L 34 5 C 34 2.2642982 31.735702 0 29 0 L 5 0 z " opacity="0.05" enable-background="new    " d="
		M35-0.938c-3.256,0-5.938,2.682-5.938,5.938v12c0,3.256,2.682,5.938,5.938,5.938h24c3.256,0,5.938-2.682,5.938-5.938V5
		c0-3.256-2.682-5.938-5.938-5.938H35z"/>
	
		<path id="path4537" inkscape:radius="1.0204744" sodipodi:type="inkscape:offset" inkscape:original="M 5 1.03125 C 2.8258474 1.03125 1.03125 2.8258474 1.03125 5 L 1.03125 17 C 1.03125 19.174153 2.8258474 20.96875 5 20.96875 L 29 20.96875 C 31.174153 20.96875 32.96875 19.174153 32.96875 17 L 32.96875 5 C 32.96875 2.8258474 31.174153 1.03125 29 1.03125 L 5 1.03125 z " opacity="0.1" enable-background="new    " d="
		M35,0c-2.736,0-5,2.264-5,5v12c0,2.736,2.264,5,5,5h24c2.736,0,5-2.264,5-5V5c0-2.736-2.264-5-5-5H35z"/>
	
		<path id="path4531" inkscape:radius="0.95425737" sodipodi:type="inkscape:offset" inkscape:original="M 5 2 C 3.338 2 2 3.338 2 5 L 2 17 C 2 18.662 3.338 20 5 20 L 29 20 C 30.662 20 32 18.662 32 17 L 32 5 C 32 3.338 30.662 2 29 2 L 5 2 z " opacity="0.2" enable-background="new    " d="
		M35,1.031c-2.174,0-3.969,1.794-3.969,3.969v12c0,2.174,1.795,3.969,3.969,3.969h24c2.174,0,3.969-1.795,3.969-3.969V5
		c0-2.174-1.795-3.969-3.969-3.969H35z"/>
	
		<linearGradient id="rect3936_1_" gradientUnits="userSpaceOnUse" x1="48.96" y1="0.0947" x2="48.96" y2="19.0952" gradientTransform="matrix(1 0 0 -1 -1.96 20.0947)">
		<stop  offset="0" style="stop-color:#A0A0A0"/>
		<stop  offset="1" style="stop-color:#DCDCDC"/>
	</linearGradient>
	<path id="rect3936" fill="url(#rect3936_1_)" d="M35,2h24c1.656,0,3,1.343,3,3v12c0,1.656-1.344,3-3,3H35c-1.656,0-3-1.344-3-3V5
		C32,3.343,33.344,2,35,2z"/>
	
		<linearGradient id="rect4059_1_" gradientUnits="userSpaceOnUse" x1="48.96" y1="20.0947" x2="48.96" y2="-6.9045" gradientTransform="matrix(1 0 0 -1 -1.96 20.0947)">
		<stop  offset="0" style="stop-color:#FFFFFF"/>
		<stop  offset="1" style="stop-color:#FFFFFF;stop-opacity:0"/>
	</linearGradient>
	
		<path id="rect4059" sodipodi:nodetypes="ssssssssssssssssss" inkscape:connector-curvature="0" opacity="0.6" fill="url(#rect4059_1_)" enable-background="new    " d="
		M35,2c-1.662,0-3,1.338-3,3v12c0,1.662,1.338,3,3,3h24c1.662,0,3-1.338,3-3V5c0-1.662-1.338-3-3-3H35z M35,3h24
		c1.125,0,2,0.875,2,2v12c0,1.125-0.875,2-2,2H35c-1.125,0-2-0.875-2-2V5C33,3.875,33.875,3,35,3z"/>
</g>
</svg>
